#!OML:ASF F:\VICON\USERDATA\INSTALL\Justin_Nancy\Justin_Nancy.ASF
:FULLY-SPECIFIED
:DEGREES
526
root -0.429276 17.4313 35.4853 -2.10756 0.805496 -2.43647
lowerback 6.23927 -0.672102 0.538095
upperback -0.441913 -0.724041 3.32914
thorax -3.92334 -0.336178 3.21656
lowerneck -17.1079 -3.92951 -9.00408
upperneck 22.3966 -4.3759 5.50284
head 10.3171 -2.14619 2.84808
rclavicle -9.12701e-015 -3.18055e-015
rhumerus -40.5557 -29.4396 -66.7571
rradius 24.3068
rwrist 10.9358
rhand -17.203 11.9104
rfingers 7.12502
rthumb 9.03943 -17.8759
lclavicle -9.12701e-015 -3.18055e-015
lhumerus -30.6491 6.637 85.1717
lradius 29.4656
lwrist -10.2681
lhand -12.4467 25.2327
lfingers 7.12502
lthumb 13.6265 54.7667
rfemur -9.18244 3.60909 28.0549
rtibia 22.3732
rfoot -6.85541 -6.37314
rtoes 4.31674
lfemur -12.3267 -1.88403 -17.4342
ltibia 65.6481
lfoot 4.96477 -6.25565
ltoes -12.1499
527
root -0.429268 17.4315 35.6362 -2.04139 0.598775 -2.24083
lowerback 6.41177 -0.528205 0.477426
upperback -0.541185 -0.534786 3.19281
thorax -4.13394 -0.240184 3.09524
lowerneck -17.2478 -4.03376 -9.07497
upperneck 22.687 -4.55151 5.69805
head 10.4702 -2.21038 2.90756
rclavicle -4.84848e-015 -7.95139e-015
rhumerus -39.784 -28.6818 -67.5082
rradius 24.3746
rwrist 10.8868
rhand -17.2872 12.0095
rfingers 7.12502
rthumb 8.9582 -17.7803
lclavicle -4.84848e-015 -7.95139e-015
lhumerus -30.9186 6.6115 85.1127
lradius 29.2476
lwrist -10.7619
lhand -12.3463 25.762
lfingers 7.12502
lthumb 13.7233 55.2894
rfemur -8.66918 3.49174 27.8931
rtibia 22.3786
rfoot -7.4537 -6.20449
rtoes 4.65398
lfemur -13.6476 -1.51428 -17.6617
ltibia 66.1315
lfoot 3.8633 -5.18843
ltoes -13.3523
528
root -0.430061 17.4376 35.7991 -1.98723 0.42523 -1.92694
lowerback 6.43358 -0.389278 0.258775
upperback -0.490416 -0.372272 3.07468
thorax -4.10073 -0.156467 3.0791
lowerneck -17.5526 -4.12487 -9.19182
upperneck 22.7635 -4.64068 5.77935
head 10.5694 -2.2473 2.94162
rclavicle 2.80473e-015 5.56597e-015
rhumerus -38.685 -27.7904 -68.4367
rradius 24.5519
rwrist 10.6635
rhand -17.4019 11.8333
rfingers 7.12502
rthumb 8.84755 -17.9612
lclavicle 2.80473e-015 5.56597e-015
lhumerus -31.0532 6.72614 85.102
lradius 29.1153
lwrist -11.1632
lhand -12.0262 26.2131
lfingers 7.12502
lthumb 14.0317 55.7195
rfemur -8.13546 3.27196 27.609
rtibia 22.4976
rfoot -8.19911 -6.05117
rtoes 4.36493
lfemur -14.9114 -1.18379 -18.0422
ltibia 66.4034
lfoot 3.05419 -4.12004
ltoes -12.3994
529
root -0.434188 17.4342 35.9481 -1.85195 0.0516339 -2.03863
lowerback 6.36173 -0.212388 0.390307
upperback -0.380969 -0.130958 3.07051
thorax -3.9592 -0.0410817 2.9746
lowerneck -17.4205 -4.04507 -9.12624
upperneck 22.3539 -4.5281 5.72502
head 10.3822 -2.19467 2.92311
rclavicle -3.4632e-016 1.27222e-014
rhumerus -37.4128 -26.9073 -69.489
rradius 24.7873
rwrist 10.5074
rhand -17.4539 11.6801
rfingers 7.12502
rthumb 8.79737 -18.1165
lclavicle -3.4632e-016 1.27222e-014
lhumerus -30.9948 6.83827 85.0889
lradius 28.8187
lwrist -11.3584
lhand -12.0574 25.9816
lfingers 7.12502
lthumb 14.0017 55.49
rfemur -7.70649 3.63394 27.8262
rtibia 22.5074
rfoot -8.66423 -6.18242
rtoes 4.55604
lfemur -16.3964 -0.627956 -17.8716
ltibia 66.606
lfoot 1.98541 -3.20873
ltoes -11.5974
530
root -0.435361 17.4231 36.0971 -1.80337 -0.279239 -1.85236
lowerback 6.47484 -0.0494885 0.327762
upperback -0.383844 0.0773238 2.9037
thorax -4.0356 0.0624149 2.81679
lowerneck -17.231 -3.87566 -8.89759
upperneck 22.1217 -4.34421 5.6509
head 10.2384 -2.10016 2.88365
rclavicle 4.26766e-015 2.8625e-014
rhumerus -36.4806 -26.1037 -70.2815
rradius 24.9417
rwrist 10.9164
rhand -17.1905 11.7044
rfingers 7.12502
rthumb 9.05154 -18.0814
lclavicle 4.26766e-015 2.8625e-014
lhumerus -31.1813 6.72475 84.9887
lradius 28.5922
lwrist -11.0929
lhand -12.1797 25.9079
lfingers 7.12502
lthumb 13.8839 55.4245
rfemur -6.99527 3.72492 27.7001
rtibia 22.2491
rfoot -9.01354 -6.17483
rtoes 3.52902
lfemur -17.6689 -0.184575 -18.0749
ltibia 66.661
lfoot 0.708684 -2.24271
ltoes -10.8131
531
root -0.435039 17.421 36.2553 -1.83099 -0.433914 -1.84189
lowerback 6.61902 0.0912802 0.518971
upperback -0.483799 0.279449 2.7463
thorax -4.22816 0.158306 2.52631
lowerneck -17.0543 -3.94806 -8.90501
upperneck 22.1583 -4.50858 5.83203
head 10.236 -2.15847 2.92839
rclavicle -3.23025e-015 7.95139e-016
rhumerus -36.0894 -25.5498 -70.7492
rradius 25.325
rwrist 11.4098
rhand -16.6725 12.1484
rfingers 7.12502
rthumb 9.55132 -17.6151
lclavicle -3.23025e-015 7.95139e-016
lhumerus -31.6966 6.24819 84.9264
lradius 28.6042
lwrist -10.8033
lhand -12.0472 25.9692
lfingers 7.12502
lthumb 14.0115 55.477
rfemur -6.10879 3.61357 27.738
rtibia 21.9476
rfoot -9.61738 -6.19481
rtoes 3.09106
lfemur -18.8944 -0.047679 -18.0778
ltibia 66.6039
lfoot -0.40692 -1.34435
ltoes -8.1402
532
root -0.437882 17.4241 36.4114 -1.72227 -0.814498 -2.47791
lowerback 6.46001 0.248571 1.29104
upperback -0.600713 0.552575 2.8148
thorax -4.26469 0.277367 2.13523
lowerneck -15.8126 -3.96667 -9.2719
upperneck 21.4112 -4.65627 6.37752
head 9.77023 -2.2112 3.16453
rclavicle 9.21553e-015 -7.95139e-015
rhumerus -35.5549 -24.7576 -71.3233
rradius 25.4474
rwrist 11.0524
rhand -16.4794 13.4992
rfingers 7.12502
rthumb 9.73762 -16.2557
lclavicle 9.21553e-015 -7.95139e-015
lhumerus -32.2632 6.08482 84.8077
lradius 28.5988
lwrist -10.8001
lhand -12.1075 26.0116
lfingers 7.12502
lthumb 13.9534 55.5234
rfemur -5.48872 3.82089 28.524
rtibia 21.7285
rfoot -10.1847 -6.29801
rtoes 2.87199
lfemur -20.38 0.263492 -17.2662
ltibia 66.4629
lfoot -1.63076 -0.698974
ltoes -5.42985
